# xmcd
#
# Track frame offsets: 
#        150
#        25641
#        45505
#        61308
#        79559
#        107889
#        127214
#        154870
#        181382
#        196391
#
# Disc length: 3016 seconds
#
# Revision: 3
# Processed by: cddbd v1.5.2PL0 Copyright (c) Steve Scherf et al.
# Submitted via: ExactAudioCopy v1.0b6
#
DISCID=7f0bc60a
DTITLE=Various Artist - Exile On Blues St
DYEAR=2003
DGENRE=Blues
TTITLE0=Lucky Peterson - Ventilator Blues
TTITLE1=Christine Ohlman - All Down The Line
TTITLE2=Tommy Castro - Rip This Joint
TTITLE3=Otis Taylor, Cassie Taylor - Sweet Black Angel
TTITLE4=Jeff Lang - Sweet Virginia
TTITLE5=Andrea Re, Colin James - Tumbling Dice
TTITLE6=Tab Benoit - Shake Your Hips
TTITLE7=Joe Louis Walker - Shine A Light
TTITLE8=Deborah Coleman - Happy
TTITLE9=Jimmy Thackery - Rocks Off
EXTD=YEAR: 2003
EXTT0=
EXTT1=
EXTT2=
EXTT3=
EXTT4=
EXTT5=
EXTT6=
EXTT7=
EXTT8=
EXTT9=
PLAYORDER=
